<?xml version="1.0" standalone="no"?>
<!DOCTYPE svg PUBLIC "-//W3C//DTD SVG 20010904//EN"
 "http://www.w3.org/TR/2001/REC-SVG-20010904/DTD/svg10.dtd">
<svg version="1.0" xmlns="http://www.w3.org/2000/svg"
 width="689.000000pt" height="327.000000pt" viewBox="0 0 689.000000 327.000000"
 preserveAspectRatio="xMidYMid meet">

<g transform="translate(0.000000,327.000000) scale(0.100000,-0.100000)"
fill="#000000" stroke="none">
<path d="M1800 1556 l0 -863 58 -6 c301 -32 563 -33 677 -3 84 23 175 69 220
113 43 42 86 127 112 223 26 97 26 462 -1 575 -47 204 -127 291 -308 337 -107
27 -239 21 -350 -15 -42 -13 -80 -22 -83 -19 -3 3 -5 122 -5 264 l0 258 -160
0 -160 0 0 -864z m642 78 c36 -19 72 -68 94 -129 25 -71 26 -305 1 -387 -40
-130 -133 -177 -325 -162 l-82 7 2 330 3 331 35 9 c107 28 220 28 272 1z"/>
<path d="M5330 1555 l0 -865 165 0 165 0 0 230 0 230 24 6 c13 3 45 6 70 7
l47 2 118 -228 c65 -126 123 -233 128 -238 6 -6 83 -8 190 -7 l180 3 -89 170
c-49 94 -124 238 -168 321 l-79 152 146 263 c80 145 151 276 159 292 l15 27
-185 0 -184 0 -101 -192 c-154 -294 -137 -270 -203 -284 -32 -6 -60 -9 -63 -6
-3 3 -5 225 -5 494 l0 488 -165 0 -165 0 0 -865z"/>
<path d="M897 1890 c-284 -270 -517 -494 -517 -499 0 -11 46 -34 59 -30 6 2
229 180 495 394 l485 390 1 118 c0 64 -1 117 -3 117 -2 0 -236 -221 -520 -490z"/>
<path d="M3395 1935 c-55 -8 -134 -23 -175 -33 l-75 -18 2 -108 c0 -59 4 -110
7 -113 3 -4 114 -1 247 5 265 12 296 9 332 -40 16 -21 21 -44 21 -95 l1 -68
-60 -7 c-33 -4 -116 -11 -185 -17 -209 -18 -326 -60 -387 -139 -42 -55 -54
-97 -60 -210 -11 -189 48 -330 161 -389 119 -62 351 -56 520 13 l59 24 61 -30
c66 -33 148 -50 239 -50 l57 0 0 43 c0 23 3 78 6 123 l7 81 -26 7 c-50 12 -52
26 -58 401 -6 379 -10 406 -65 491 -32 50 -101 97 -174 119 -76 24 -322 29
-455 10z m365 -839 l0 -134 -47 -11 c-59 -14 -192 -31 -207 -26 -6 2 -24 6
-39 9 -86 19 -91 211 -6 257 19 10 193 34 277 38 22 1 22 0 22 -133z"/>
<path d="M5015 1920 c-49 -16 -130 -50 -179 -75 -49 -25 -90 -45 -92 -45 -2 0
-4 27 -4 60 l0 60 -165 0 -165 0 0 -615 0 -615 165 0 165 0 0 415 0 414 63 19
c34 11 122 34 195 52 l132 32 0 164 c0 125 -3 164 -12 164 -7 -1 -53 -14 -103
-30z"/>
<path d="M1135 1496 c-44 -19 -205 -84 -357 -146 -258 -104 -278 -114 -278
-137 0 -18 4 -23 18 -19 9 2 177 39 372 81 195 43 358 80 361 84 10 9 -14 164
-26 167 -5 2 -46 -12 -90 -30z"/>
<path d="M475 990 c-16 -11 -27 -20 -23 -20 5 0 212 -54 460 -119 249 -66 465
-123 481 -126 l27 -7 0 115 0 115 -62 6 c-35 4 -214 15 -398 26 -184 11 -362
22 -395 25 -49 5 -65 2 -90 -15z"/>
</g>
</svg>
