<svg version="1.2" xmlns="http://www.w3.org/2000/svg" viewBox="0 0 1545 538" width="1545" height="538">
	<title>logo (20)-svg</title>
	<style>
		.s0 { fill: #00afd7 } 
	</style>
	<path id="Layer" class="s0" d="m6.2 536.2c1.4-180-0.9-382.7-6.2-529.7 27.8-2.9 71.9-5.7 99.3-5.5q2.3 0 4.6 0.1 88.9 1.9 130.3 46.6c22.5 24.2 34.7 54.5 34.4 92.3-0.8 113.5-123.4 126.9-123.4 126.9l3.1 0.1c0.4 0 135.6 6.3 137 125.8 2.6 133.9-132.8 143.7-196.7 143.2-2.8 0-5.5 0.1-8.3 0.1z"/>
	<path id="Layer" class="s0" d="m1396 379.9c2.5-11.3 9.8-36.4 13.3-46.7l128.5 26.1c-2.2 10.5-8 30.1-12.6 46.1-2.2 7.6-4.2 14.3-5.4 18.9z"/>
	<path id="Layer" class="s0" d="m1366.2 301.7l-0.9-1.3q-3.6-5.6-7-11.4-3.3-5.7-6.5-11.5-3.1-5.9-6-11.9-3-5.9-5.7-12l-0.6-1.6 1.4-0.7c34.1-18.4 68.9-41.3 102.5-63.5 22.4-14.7 45.6-30.1 68-43.6l1.6-0.9 1 1.5q3 5.8 5.8 11.6 2.8 5.8 5.5 11.7 2.7 5.9 5.3 11.9 2.5 5.9 4.9 11.9c3.5 8.3 6.5 15.5 8.4 19.4l0.7 1.6-1.5 0.8c-31.7 18-67.5 35-102.1 51.4-24.5 11.6-49.9 23.7-73.3 35.9z"/>
	<path id="Layer" class="s0" d="m1006 526.1h123.7q-1.9-11.4-3.6-22.9-1.6-11.4-2.9-22.9-1.4-11.5-2.4-23-1-11.5-1.8-23.1l-0.1-4.4 220.2 95 51.7-65.9c-87.4-56.1-223.1-140.1-229.3-146.1l-1.5-1.4 1.6-1.3c0.8-0.7 141.3-104.6 240.3-180.8l-46.3-79.3-239 77.2-0.7-126h-109.9c0 0 9 300.7 0 524.9z"/>
	<path id="Layer" class="s0" d="m535.5 1.7c23.2 170.1 57.1 401.5 94.2 534.8l-107.9 1.3c-20-72.6-42.2-182.8-42.4-184l-0.4-1.8-52.6 10.5-32.7 163h-105.2c31.6-147.7 73.3-358.5 94.1-523.8z"/>
	<path id="Layer" class="s0" d="m908.8 537.3c-58.3-58.1-129-184.5-141.5-209.5l-7.7 0.2c0.5 23.1 0.8 35.4 1.6 58.9 1.3 41.1 2.6 84.1 2.7 138.6h-99.4c0-164-3.1-329.1-9.4-519.2q12.3-1.3 24.5-2.3 12.3-1 24.6-1.7 12.3-0.6 24.7-0.9 12.3-0.3 24.6-0.2c83.3 0 189.1 26.5 189.1 154.5-0.1 12.3-1.7 24.5-4.6 36.5-2.9 11.9-7.2 23.5-12.8 34.4-5.6 11-12.5 21.2-20.5 30.6-7.9 9.4-17 17.8-26.9 25q-0.8 0.7-1.6 1.4-0.8 0.7-1.6 1.4-0.8 0.6-1.6 1.3-0.9 0.6-1.8 1.2l-1.2 0.9 0.6 1.4c16.6 35.8 64.4 129.6 120.2 196.2z"/>
</svg>