<svg xmlns="http://www.w3.org/2000/svg" viewBox="0 0 128 128"><defs><style>.cls-1{fill:#a0aec0}</style></defs><g id="Food_List" data-name="Food List"><path class="cls-1" d="M8 107a1 1 0 0 1-1-1V11a1 1 0 0 1 1-1h17V5H5a4 4 0 0 0-4 4v102a4 4 0 0 0 4 4h67.86a48.68 48.68 0 0 1-3.71-8ZM74.59 19 69 13.41V19h5.59z"/><path class="cls-1" d="M17 25h6v6h-6zM17 41h6v6h-6z"/><path class="cls-1" d="M9 105h59.49C65.4 95 67.09 80.67 76 75.19V21h-8a1 1 0 0 1-1-1v-8h-8.13A4 4 0 0 1 55 15H29a4 4 0 0 1-3.87-3H9Zm21-81h35a1 1 0 0 1 0 2H30a1 1 0 0 1 0-2Zm0 6h26a1 1 0 0 1 0 2H30a1 1 0 0 1 0-2Zm0 10h35a1 1 0 0 1 0 2H30a1 1 0 0 1 0-2Zm0 6h26a1 1 0 0 1 0 2H30a1 1 0 0 1 0-2Zm0 10h35a1 1 0 0 1 0 2H30a1 1 0 0 1 0-2Zm0 6h26a1 1 0 0 1 0 2H30a1 1 0 0 1 0-2Zm0 10h35a1 1 0 0 1 0 2H30a1 1 0 0 1 0-2Zm0 6h26a1 1 0 0 1 0 2H30a1 1 0 0 1 0-2Zm0 10h35a1 1 0 0 1 0 2H30a1 1 0 0 1 0-2Zm0 6h26a1 1 0 0 1 0 2H30a1 1 0 0 1 0-2ZM15 24a1 1 0 0 1 1-1h8a1 1 0 0 1 1 1v8a1 1 0 0 1-1 1h-8a1 1 0 0 1-1-1Zm0 16a1 1 0 0 1 1-1h8a1 1 0 0 1 1 1v8a1 1 0 0 1-1 1h-8a1 1 0 0 1-1-1Zm0 16a1 1 0 0 1 1-1h8a1 1 0 0 1 1 1v8a1 1 0 0 1-1 1h-8a1 1 0 0 1-1-1Zm0 16a1 1 0 0 1 1-1h8a1 1 0 0 1 1 1v8a1 1 0 0 1-1 1h-8a1 1 0 0 1-1-1Zm0 16a1 1 0 0 1 1-1h8a1 1 0 0 1 1 1v8a1 1 0 0 1-1 1h-8a1 1 0 0 1-1-1Z"/><path class="cls-1" d="M17 57h6v6h-6zM17 73h6v6h-6zM17 89h6v6h-6zM68.71 10.29C78.41 20 78 19.4 78 20v54.16A15.16 15.16 0 0 1 83 73V9a4 4 0 0 0-4-4H59v5c9.61 0 9.3-.12 9.71.29Z"/><path class="cls-1" d="M116.62 75.78C111.49 79.64 107.13 79 100 79a1 1 0 0 1-1-1v-9a9 9 0 0 0-9-9 1 1 0 0 0 0 2 7 7 0 0 1 7 7v7.93c-3.57-.41-12.56-3.79-19-.55-6.76 3.38-9 12-9 19.62 0 13.11 12.08 31 21 31 6 0 5-1 8-1s2 1 8 1c9 0 21-18 21-31 0-10.62-4-17.91-10.38-20.22ZM120 96c0-6.77-2.1-14-8-14a1 1 0 0 1 0-2c7.37 0 10 8.27 10 16a1 1 0 0 1-2 0Z"/><path class="cls-1" d="M121 63h-6a14 14 0 0 0-14 14h6a14 14 0 0 0 14-14ZM50 8a1 1 0 0 0 0-2 1 1 0 0 0 0 2ZM34 8a1 1 0 0 0 0-2 1 1 0 0 0 0 2Z"/><path class="cls-1" d="M29 13h26a2 2 0 0 0 2-2V3a2 2 0 0 0-2-2H29a2 2 0 0 0-2 2c0 8.71-.07 8.41.25 9A2 2 0 0 0 29 13Zm21-9a3 3 0 1 1-3 3 3 3 0 0 1 3-3ZM34 4a3 3 0 1 1-3 3 3 3 0 0 1 3-3Z"/></g></svg>