<svg xmlns="http://www.w3.org/2000/svg" viewBox="0 0 128 128"><defs><style>.cls-1{fill:#a0aec0}</style></defs><g id="Food_Calculation" data-name="Food Calculation"><circle class="cls-1" cx="51" cy="25" r="3"/><path class="cls-1" d="M74 11H10v22h64Zm-43 5a7 7 0 0 1-3.4 6 7 7 0 0 1 3.4 6v1a1 1 0 0 1-2 0v-1a5 5 0 0 0-4-4.9V29a1 1 0 0 1-2 0V15a1 1 0 0 1 2 0v5.9a5 5 0 0 0 4-4.9v-1a1 1 0 0 1 2 0Zm9 14a5 5 0 1 1 3.54-8.54 1 1 0 0 1-1.42 1.42 3.08 3.08 0 0 0-4.24 0 3 3 0 0 0 0 4.24 3.08 3.08 0 0 0 4.24 0 1 1 0 0 1 1.42 0C44.82 28.4 41.94 30 40 30Zm16-1a1 1 0 0 1-2 0 5 5 0 1 1 0-8 1 1 0 0 1 2 0Zm5 0a1 1 0 0 1-2 0V15a1 1 0 0 1 2 0Z"/><rect class="cls-1" x="46" y="43" width="10" height="4" rx="1"/><rect class="cls-1" x="46" y="91" width="10" height="10" rx="1"/><rect class="cls-1" x="46" y="73" width="10" height="10" rx="1"/><path class="cls-1" d="M65 103a3 3 0 0 1-3-3V74a3 3 0 0 1 3-3h8a3 3 0 0 1 3 3v1.19A14.74 14.74 0 0 1 83 73V5a4 4 0 0 0-4-4H5a4 4 0 0 0-4 4v102a4 4 0 0 0 4 4h65.78a44.31 44.31 0 0 1-2.85-8Zm11-39a3 3 0 0 1-3 3h-8a3 3 0 0 1-3-3v-8a3 3 0 0 1 3-3h8a3 3 0 0 1 3 3Zm0-18a3 3 0 0 1-3 3h-8a3 3 0 0 1-3-3v-2a3 3 0 0 1 3-3h8a3 3 0 0 1 3 3ZM8 10a1 1 0 0 1 1-1h66a1 1 0 0 1 1 1v24a1 1 0 0 1-1 1H9a1 1 0 0 1-1-1Zm14 90a3 3 0 0 1-3 3h-8a3 3 0 0 1-3-3v-8a3 3 0 0 1 3-3h8a3 3 0 0 1 3 3Zm0-18a3 3 0 0 1-3 3h-8a3 3 0 0 1-3-3v-8a3 3 0 0 1 3-3h8a3 3 0 0 1 3 3Zm0-18a3 3 0 0 1-3 3h-8a3 3 0 0 1-3-3v-8a3 3 0 0 1 3-3h8a3 3 0 0 1 3 3Zm0-18a3 3 0 0 1-3 3h-8a3 3 0 0 1-3-3v-2a3 3 0 0 1 3-3h8a3 3 0 0 1 3 3Zm18 54a3 3 0 0 1-3 3h-8a3 3 0 0 1-3-3v-8a3 3 0 0 1 3-3h8a3 3 0 0 1 3 3Zm0-18a3 3 0 0 1-3 3h-8a3 3 0 0 1-3-3v-8a3 3 0 0 1 3-3h8a3 3 0 0 1 3 3Zm0-18a3 3 0 0 1-3 3h-8a3 3 0 0 1-3-3v-8a3 3 0 0 1 3-3h8a3 3 0 0 1 3 3Zm0-18a3 3 0 0 1-3 3h-8a3 3 0 0 1-3-3v-2a3 3 0 0 1 3-3h8a3 3 0 0 1 3 3Zm18 54a3 3 0 0 1-3 3h-8a3 3 0 0 1-3-3v-8a3 3 0 0 1 3-3h8a3 3 0 0 1 3 3Zm0-18a3 3 0 0 1-3 3h-8a3 3 0 0 1-3-3v-8a3 3 0 0 1 3-3h8a3 3 0 0 1 3 3Zm0-18a3 3 0 0 1-3 3h-8a3 3 0 0 1-3-3v-8a3 3 0 0 1 3-3h8a3 3 0 0 1 3 3Zm0-18a3 3 0 0 1-3 3h-8a3 3 0 0 1-3-3v-2a3 3 0 0 1 3-3h8a3 3 0 0 1 3 3Z"/><rect class="cls-1" x="46" y="55" width="10" height="10" rx="1"/><path class="cls-1" d="M74 76.67V74a1 1 0 0 0-1-1h-8a1 1 0 0 0-1 1v26a1 1 0 0 0 1 1h2.5c-1.5-7.87.22-18.83 6.5-24.33Z"/><rect class="cls-1" x="64" y="55" width="10" height="10" rx="1"/><rect class="cls-1" x="64" y="43" width="10" height="4" rx="1"/><rect class="cls-1" x="10" y="43" width="10" height="4" rx="1"/><rect class="cls-1" x="10" y="73" width="10" height="10" rx="1"/><rect class="cls-1" x="28" y="91" width="10" height="10" rx="1"/><rect class="cls-1" x="10" y="55" width="10" height="10" rx="1"/><rect class="cls-1" x="28" y="73" width="10" height="10" rx="1"/><rect class="cls-1" x="28" y="55" width="10" height="10" rx="1"/><rect class="cls-1" x="10" y="91" width="10" height="10" rx="1"/><rect class="cls-1" x="28" y="43" width="10" height="4" rx="1"/><path class="cls-1" d="M116.61 75.78C111.48 79.64 107.13 79 100 79a1 1 0 0 1-1-1v-9c0-8.06-10-10.78-10-8a1 1 0 0 0 1 1 7 7 0 0 1 7 7v7.93C94.11 76.6 90.25 75 84 75c-12.09 0-16.79 14.38-14.48 26 2.07 10.52 11.74 26 20.48 26 6 0 5-1 8-1s2 1 8 1c9 0 21-18 21-31 0-10.63-4-17.91-10.39-20.22ZM120 96c0-6.77-2.1-14-8-14a1 1 0 0 1 0-2c7.37 0 10 8.27 10 16a1 1 0 0 1-2 0Z"/><path class="cls-1" d="M121 63h-6a14 14 0 0 0-14 14h6a14 14 0 0 0 14-14Z"/></g></svg>